PathFileType   4   (X/Y/Z)
DataRate	CameraRate	NumFrames	NumMarkers	Units	OrigDataRate	OrigDataStartFrame	OrigNumFrames
120.0	120.0	7	37	mm	120.0	155	206
Frame#	Time	midhip	hip_r	hip_l	knee_r	knee_l	ankle_r	ankle_l	midasis	asis_r	asis_l	psis_r	psis_l	epicondLat_r	epicondLat_l	epicondMed_r	epicondMed_l	malleolusLat_r	malleolusLat_l	malleolusMedv_r	malleolusMedv_l	neck	subclavicle_r	subclavicle_l	sternalnotch	xyphoidprocess	thighwand_r	thighwand_l	upperleg1_r	upperleg1_l	upperleg2_r	upperleg2_l	shankwand_r	shankwand_l	lowerleg1_r	lowerleg1_l	toe_r	toe_l
 	 	X1	Y1	Z1	X2	Y2	Z2	X3	Y3	Z3	X4	Y4	Z4	X5	Y5	Z5	X6	Y6	Z6	X7	Y7	Z7	X8	Y8	Z8	X9	Y9	Z9	X10	Y10	Z10	X11	Y11	Z11	X12	Y12	Z12	X13	Y13	Z13	X14	Y14	Z14	X15	Y15	Z15	X16	Y16	Z16	X17	Y17	Z17	X18	Y18	Z18	X19	Y19	Z19	X20	Y20	Z20	X21	Y21	Z21	X22	Y22	Z22	X23	Y23	Z23	X24	Y24	Z24	X25	Y25	Z25	X26	Y26	Z26	X27	Y27	Z27	X28	Y28	Z28	X29	Y29	Z29	X30	Y30	Z30	X31	Y31	Z31	X32	Y32	Z32	X33	Y33	Z33	X34	Y34	Z34	X35	Y35	Z35	X36	Y36	Z36	X37	Y37	Z37

	155	1.44167	2027.219	635.665	-167.649	2036.622	643.043	-111.287	2032.141	653.095	-228.216	2010.549	342.174	-109.951	2076.651	345.737	-245.386	1962.285	54.028	-107.740	1993.143	73.218	-252.585	2078.430	710.088	-166.108	2081.808	702.510	-77.955	2075.051	717.666	-254.261	1942.228	726.840	-118.019	1942.976	726.549	-204.156	2006.525	342.726	-64.131	2070.072	347.438	-292.902	2000.333	342.339	-153.157	2087.631	344.679	-205.349	1960.342	54.610	-74.301	1975.693	79.271	-279.327	1964.188	55.802	-134.709	1999.032	72.426	-218.441	1998.276	1043.778	-137.512	2094.159	974.052	-102.578	2090.221	981.658	-194.058	2077.604	989.841	-138.985	2122.447	856.314	-157.139	2135.315	419.106	-123.815	2118.058	444.233	-354.662	2070.071	478.071	-83.525	2116.938	492.927	-268.216	2045.114	393.364	-80.921	2127.105	408.863	-255.819	2003.401	127.750	-9.399	2114.368	146.445	-256.224	1992.888	195.743	-67.431	2071.251	217.899	-256.913	2050.977	39.980	-106.403	2063.990	41.644	-277.332
	156	1.45000	2031.611	635.290	-168.407	2040.926	642.604	-112.010	2036.602	652.818	-228.930	2012.243	341.932	-110.269	2085.098	345.996	-246.165	1962.523	54.083	-107.836	2011.214	70.561	-256.277	2082.735	709.776	-166.674	2085.994	702.075	-78.526	2079.475	717.476	-254.822	1946.429	726.354	-118.786	1947.310	726.084	-204.876	2008.197	342.584	-64.451	2078.885	347.686	-293.731	2002.128	341.957	-153.216	2094.768	344.848	-205.730	1960.471	54.720	-74.405	1993.979	76.174	-283.253	1964.281	55.784	-134.772	2016.479	69.669	-222.092	2002.460	1043.498	-138.468	2098.349	973.710	-103.452	2094.430	981.176	-194.942	2081.812	989.466	-139.879	2126.555	855.865	-157.825	2137.794	417.801	-124.179	2125.970	445.160	-354.581	2072.857	477.259	-83.910	2122.897	493.605	-267.794	2047.342	392.883	-81.118	2134.061	409.771	-255.462	2003.676	127.698	-9.455	2129.822	148.287	-257.567	1993.581	195.664	-67.493	2084.109	218.110	-258.334	2051.056	39.877	-106.292	2083.600	41.369	-280.058
	157	1.45833	2035.987	634.912	-169.210	2045.173	642.156	-112.750	2041.053	652.526	-229.664	2013.975	341.701	-110.618	2093.444	346.304	-246.992	1962.760	54.150	-107.932	2029.355	68.271	-260.051	2087.020	709.440	-167.246	2090.127	701.621	-79.099	2083.914	717.259	-255.393	1950.630	725.880	-119.632	1951.680	725.626	-205.678	2009.875	342.452	-64.807	2087.533	347.987	-294.597	2004.236	341.319	-153.431	2101.999	344.836	-206.322	1960.596	54.847	-74.509	2012.336	73.472	-287.246	1964.254	55.778	-134.894	2033.839	67.176	-225.837	2006.382	1043.133	-139.729	2102.580	973.363	-104.348	2098.677	980.703	-195.857	2086.066	989.085	-140.836	2130.972	855.488	-158.560	2140.275	416.503	-124.481	2133.625	446.031	-354.565	2075.216	476.470	-84.374	2128.617	494.105	-267.423	2049.512	392.440	-81.398	2140.903	410.729	-255.293	2003.947	127.665	-9.526	2145.118	150.427	-259.023	1994.266	195.583	-67.673	2096.873	218.533	-259.995	2051.135	39.799	-106.171	2103.094	41.201	-282.836
	158	1.46667	2040.337	634.528	-170.035	2049.381	641.698	-113.510	2045.513	652.217	-230.419	2015.749	341.479	-111.003	2101.671	346.650	-247.884	1962.989	54.230	-108.031	2047.557	66.353	-263.870	2091.303	709.081	-167.826	2094.220	701.151	-79.678	2088.386	717.012	-255.974	1954.833	725.414	-120.555	1956.086	725.175	-206.563	2011.559	342.331	-65.202	2095.996	348.330	-295.518	2006.232	341.013	-153.845	2109.038	345.085	-206.869	1960.714	54.994	-74.617	2030.750	71.161	-291.268	1964.408	55.825	-135.018	2051.425	65.076	-229.674	2010.498	1042.758	-140.992	2106.880	973.040	-105.304	2102.972	980.214	-196.838	2090.361	988.703	-141.850	2135.376	855.093	-159.310	2142.766	415.211	-124.720	2141.015	446.832	-354.634	2077.817	475.829	-84.851	2134.398	494.718	-267.418	2051.615	392.049	-81.782	2147.617	411.643	-255.300	2004.217	127.651	-9.617	2160.240	152.872	-260.568	1995.086	195.561	-67.952	2109.519	219.181	-261.870	2051.218	39.752	-106.041	2122.486	41.116	-285.628
	159	1.47500	2044.677	634.133	-170.875	2053.568	641.230	-114.286	2049.998	651.882	-231.193	2017.569	341.265	-111.423	2109.766	347.022	-248.853	1963.210	54.323	-108.136	2065.804	64.807	-267.696	2095.598	708.696	-168.415	2098.290	700.664	-80.266	2092.906	716.728	-256.564	1959.038	724.949	-121.552	1960.527	724.727	-207.531	2013.256	342.219	-65.636	2104.255	348.702	-296.506	2008.115	340.950	-154.307	2115.834	345.515	-207.205	1960.823	55.158	-74.732	2049.206	69.235	-295.285	1964.656	55.976	-135.133	2069.193	63.346	-233.549	2014.833	1042.409	-142.180	2111.226	972.758	-106.331	2107.305	979.755	-197.898	2094.700	988.318	-142.924	2139.718	854.708	-160.121	2145.279	413.919	-124.897	2148.135	447.551	-354.814	2080.707	475.227	-85.272	2140.224	495.381	-267.662	2053.734	391.650	-82.173	2154.190	412.389	-255.328	2004.490	127.655	-9.732	2175.168	155.626	-262.178	1996.065	195.684	-68.191	2121.958	220.008	-263.663	2051.305	39.733	-105.909	2141.789	41.100	-288.395
	160	1.48333	2049.021	633.718	-171.733	2057.751	640.745	-115.080	2054.523	651.517	-231.985	2019.442	341.053	-111.874	2117.723	347.408	-249.911	1963.423	54.425	-108.250	2084.078	63.631	-271.497	2099.918	708.281	-169.015	2102.352	700.159	-80.869	2097.485	716.403	-257.161	1963.249	724.478	-122.618	1965.001	724.274	-208.580	2014.971	342.114	-66.104	2112.301	349.091	-297.574	2010.057	340.893	-154.704	2122.536	345.852	-207.605	1960.926	55.336	-74.856	2067.687	67.687	-299.266	1964.846	56.163	-135.242	2087.012	61.947	-237.404	2019.229	1042.028	-143.289	2115.618	972.484	-107.468	2111.721	979.300	-199.039	2099.087	987.929	-144.063	2144.150	854.335	-161.014	2147.817	412.614	-125.009	2154.989	448.178	-355.128	2083.638	474.648	-85.677	2145.965	495.900	-267.987	2055.901	391.299	-82.517	2160.621	413.057	-255.487	2004.771	127.677	-9.869	2189.883	158.695	-263.828	1997.056	195.870	-68.397	2134.240	221.018	-265.369	2051.390	39.728	-105.787	2161.015	41.142	-291.099
	161	1.49167	2053.369	633.273	-172.602	2061.944	640.240	-115.896	2059.099	651.119	-232.801	2021.374	340.841	-112.349	2125.540	347.797	-251.069	1963.633	54.535	-108.378	2102.354	62.821	-275.247	2104.274	707.835	-169.630	2106.419	699.634	-81.492	2102.128	716.036	-257.767	1967.470	723.993	-123.748	1969.510	723.810	-209.702	2016.714	342.014	-66.601	2120.134	349.484	-298.734	2012.053	340.736	-155.089	2129.258	345.984	-208.302	1961.026	55.524	-74.994	2086.166	66.508	-303.187	1965.008	56.268	-135.379	2104.927	60.933	-241.223	2023.658	1041.633	-144.596	2120.034	972.173	-108.675	2116.201	978.782	-200.176	2103.526	987.535	-145.260	2148.610	853.905	-161.899	2150.381	411.287	-125.054	2161.592	448.712	-355.594	2086.555	474.025	-86.127	2151.632	496.271	-268.457	2058.056	390.917	-82.855	2166.975	413.580	-255.940	2005.064	127.716	-10.030	2204.370	162.076	-265.502	1997.998	195.922	-68.706	2146.396	222.202	-267.198	2051.467	39.727	-105.687	2180.161	41.237	-293.709
